<?xml version="1.0" standalone="no"?>
<!DOCTYPE svg PUBLIC "-//W3C//DTD SVG 1.1//EN" "http://www.w3.org/Graphics/SVG/1.1/DTD/svg11.dtd" >
<svg xmlns="http://www.w3.org/2000/svg">
<metadata>Generated by IcoMoon</metadata>
<defs>
<font id="icontaxi" horiz-adv-x="512">
<font-face units-per-em="512" ascent="480" descent="-32" />
<missing-glyph horiz-adv-x="512" />
<glyph unicode="&#x20;" d="" horiz-adv-x="256" />
<glyph unicode="&#xe600;" d="M389.749-22.722c-22.813-11.403-57.022-11.403-68.435 14.25l-34.208 85.547c-5.699 14.25-5.699 31.37 2.844 45.621-34.208-11.403-71.282-11.403-105.501 2.844-45.621 14.25-79.827 45.621-96.951 88.401-19.966 42.773-22.814 88.401-8.552 134.015 17.113 42.772 48.464 76.985 91.253 96.951 85.547 42.772 188.194 5.698 228.108-79.827 34.208-79.827 8.551-173.935-62.735-219.561 17.113-2.844 31.37-11.403 37.068-28.52l48.464-82.688c11.403-25.663-8.551-45.621-31.37-57.022zM355.521 248.162v0c8.551 31.37 8.551 62.735-5.699 94.098-28.52 59.882-99.796 85.547-159.671 57.022s-85.547-102.649-57.022-162.533c28.52-59.882 99.796-85.547 159.671-57.022 28.521 14.25 51.32 37.068 62.735 68.435z" horiz-adv-x="507" />
<glyph unicode="&#xe601;" d="M44.181 225.644c14.121 18.467 57.935 14.121 76.764 22.45 26.071 11.587 104.645 40.917 125.284 39.468s30.416-20.639 36.209-42.365c2.897-10.5 0-35.847-10.139-39.468-10.5-3.259-41.641-0.724-68.435-14.846-19.915-6.156-25.346-13.036-70.246-14.483 36.209-15.932 86.178 15.208 123.836 14.846 28.968-0.362 37.657-22.087 39.468-26.795 5.070-11.949-1.81-49.607-28.967-56.849-47.434-12.673-69.16-23.174-72.418-25.709-2.897-2.534 44.899 8.69 65.539 7.604 19.191-0.724 23.536-17.019 23.898-20.639 0.724-3.259-4.707-26.795-23.898-36.209-26.433-13.036-59.745-2.173-73.143-6.156 15.932-12.311 49.607-17.743 78.936-5.070-4.345-65.901-96.317-55.038-96.317-55.038s-10.138 14.483-23.174 24.26c-12.673 9.414-27.519 13.76-34.399 22.087-6.88 8.69 0 30.416-6.88 41.64-6.88 10.863-27.519 14.483-38.744 30.778-9.415 14.122 5.793 51.779 1.811 65.539s-35.123 22.812-34.399 36.933c0.724 16.294 1.087 26.795 9.415 38.020zM258.54 457.022c4.707 0.724 37.296-5.070 48.159-25.709 10.5-20.639 16.294-28.605 11.949-63.728-1.81-7.966-10.139-54.314-11.225-73.867-1.449-48.883 15.57-48.159 13.036-86.178-3.983-30.416 1.087-28.606-7.966-59.384-2.173 17.38-6.156 21.726-9.414 28.243-7.242 9.053-16.294 27.519-16.294 27.519s20.277 27.519 11.949 49.969c-7.966 22.45-51.779 47.072-58.297 51.78-3.259 12.311-1.448 14.846-1.81 20.639 17.381-5.432 36.934-6.88 36.934-6.88-0.362 0-65.901 19.553-68.073 56.124-2.897 27.157 7.242 40.916 6.88 45.624 14.483 39.83 39.106 35.485 44.175 35.847z" horiz-adv-x="363" />
<glyph unicode="&#xe602;" d="M227.802 458.841v-47.028h-111.236v-11.822l-5.36 2.35-54.525-141.107h-23.55c-15.37 0-27.826-12.667-27.826-28.226v-178.828h55.63v-56.45c0-15.606 12.457-28.226 27.802-28.226h9.26c15.371 0 27.826 12.621 27.826 28.226v56.45h305.928v-56.45c0-15.606 12.457-28.226 27.803-28.226h9.26c15.37 0 27.826 12.621 27.826 28.226v56.45h55.606v178.828c0 15.559-12.457 28.226-27.803 28.226h-15.746l-58.522 144.914-9.165-3.809v9.471h-111.259v47.028h-101.952zM467.69 218.672c23.009 0 41.67-18.661 41.67-41.694 0-23.009-18.661-41.646-41.669-41.646s-41.693 18.637-41.693 41.646c0 23.034 18.685 41.694 41.693 41.694zM97.434 219.354c23.008 0 41.669-19.107 41.669-42.632 0-23.55-18.661-42.632-41.669-42.632-23.034 0-41.669 19.083-41.669 42.632 0 23.526 18.638 42.632 41.669 42.632zM95.367 261.235l43.621 112.928h284.048l45.57-112.928h-373.238z" horiz-adv-x="562" />
<glyph unicode="&#xe603;" d="M220.611 465.175c40.782 0 73.853-34.455 73.853-76.934s-33.070-76.915-73.853-76.915c-40.782 0-73.834 34.438-73.834 76.915s33.052 76.934 73.834 76.934zM345.911 206.664l-21.221-233.188c0-3.281-2.625-5.943-5.852-5.943h-194.759c-3.227 0-5.834 2.662-5.834 5.943l-19.635 215.615-36.935-158.132c-0.583-3.099-3.737-5.177-7.037-4.612l-47.709 8.058c-3.3 0.546-5.487 3.519-4.905 6.636l56.916 243.616c0.601 3.118 3.737 5.177 7.037 4.631l47.709-0.438c0.164-0.036 0.31-0.073 0.457-0.147l0.219 0.036 0.237 0.018 0.164 0.018h0.055l0.219 0.018 0.237 0.036h0.164l0.055 0.018 0.438 0.036 0.182 0.018h0.036l0.219 0.018 0.401 0.036h0.018l0.201 0.018 0.419 0.036v0.018l0.601 0.036h0.018l0.382 0.036 0.182 0.018h0.018l0.546 0.055h0.036l0.147 0.018h0.182l0.182 0.018h0.036l0.147 0.018 0.329 0.036h0.182l0.329 0.036h0.055l0.255 0.018 0.147 0.018h0.147l0.292 0.018 0.073 0.018h0.219l0.127 0.018h0.127l0.127 0.018h0.201l0.055 0.018h0.219l0.091 0.018h0.31l0.036 0.018h0.274l0.219 0.018 211.315-1.454c0.036 0.036 0.073 0.073 0.11 0.127h0.018c0.036 0.055 0.073 0.091 0.127 0.127v0 0 0 0c0.036 0.036 0.091 0.073 0.127 0.11v0 0 0.018c0.055 0.018 0.091 0.055 0.127 0.091v0h0.018c0.036 0.036 0.073 0.055 0.127 0.091v0 0 0 0 0h0.018c0.036 0.036 0.073 0.055 0.11 0.073h0.018v0.018c0.055 0.018 0.091 0.036 0.127 0.055h0.018c0.036 0.018 0.091 0.036 0.127 0.054v0 0 0h0.018c0.036 0 0.091 0.018 0.127 0.018v0 0.018l44.738 0.438c3.099 0.583 6.034-1.568 6.599-4.776l53.361-252.093c0.546-3.209-1.514-6.289-4.594-6.854l-44.738-8.35c-3.082-0.565-6.034 1.568-6.599 4.795l-39.087 184.677z" horiz-adv-x="450" />
<glyph unicode="&#xe604;" d="M12.074 446.969v0c-6.696-7.695-8.060-13.817-8.060-23.452v-427.627c0-8.604-0.998-14.726 4.362-21.756 7.695-5.363 14.665-4.029 24.209-4.029h639.289c9.576 0 18.664-0.998 24.36 3.696 5.363 7.029 4.362 14.060 4.362 22.937v427.478c0 9.361 0.333 17.391-5.363 22.755-7.029 6.029-14.118 5.363-23.875 5.363h-635.928c-10.483 0-13.998 0-23.36-5.363zM96.728 416.006l243.475-216.389c4.668-2.878 17.938-4.608 24.755 1.453l240.689 214.026c8.181 7.241 20.785 6.486 27.995-1.667l10.605-11.906c7.213-8.119 6.486-20.724-1.667-27.965l-188.153-167.276 178.91-159.065c8.816-7.847 9.633-21.483 1.787-30.268l-8.454-9.483c-7.817-8.815-21.45-9.604-30.268-1.787l-183.788 163.428-27.632-24.601c-3.998-3.543-16.452-6.666-27.541-7.757-7.301-4.149-32.874 2.363-39.57 8.332l-26.784 23.781-184.242-163.791c-8.423-7.486-21.45-6.725-28.963 1.726l-9.632 10.846c-7.515 8.393-6.755 21.45 1.696 28.963l179.333 159.43-189.454 168.427c-8.030 7.18-8.786 19.572-1.638 27.602l10.998 12.332c7.118 8.030 19.541 8.754 27.541 1.605v0z" horiz-adv-x="706" />
<glyph unicode="&#xe605;" d="M5.817 268.926h201.486v-54.656h-192.243l1.823-21.093h190.419l-0.711-227.883h21.603l-1.823 227.883h196.745l-36.171-227.883h-332.108l-49.021 303.631zM228.196 268.926h207.792l-10.009-54.656h-197.784v54.656zM134.033 430.286c-88.51 64.81-153.284 16.407-120.231-67.818 12.779-32.596 26.271-45.613 38.96-53.543 31.777-19.926 109.255-14.256 149.072-14.256 37.392 0 20.692 70.826-67.801 135.618zM134.854 395.884c8.951-7.839 42.185-55.258 54.035-82.966-38.266 7.657-82.348-18.668-133.886 38.613-42.185 46.889 28.641 89.385 79.85 44.355zM306.77 430.504c88.51 64.793 153.266 16.389 120.213-67.818-12.779-32.615-26.271-45.613-38.96-53.562-31.777-19.926-109.255-14.256-149.072-14.256-37.374 0-20.692 70.826 67.818 135.636zM305.93 396.103c-8.933-7.858-42.185-55.258-54.035-82.966 38.285 7.657 82.348-18.668 133.886 38.594 42.204 46.907-28.623 89.404-79.851 44.374z" horiz-adv-x="442" />
<glyph unicode="&#xe606;" d="M571.759 451.463h-339.51l-2.291 2.319-2.065-2.319h-18.95v-21l-172.244-190.995h-17.804v-95.357c0 0 90.463-0.113 155.514-45.946 60.837-42.947 65.631-123.668 65.631-123.668h331.718v476.966zM370.624 193.832h112.001v-38.139h-112.001v38.139zM242.969 416.123h294.257v-176.656h-453.575l159.319 176.656z" horiz-adv-x="594" />
<glyph unicode="&#xe607;" d="M247.878 462.901c136.856 0 247.814-110.959 247.814-247.836 0-136.856-110.959-247.813-247.814-247.813-136.879 0-247.836 110.958-247.836 247.813 0 136.879 110.959 247.836 247.836 247.836z" horiz-adv-x="498" />
<glyph unicode="&#xe608;" d="M253.542 455.010c-135.518 0-245.349-109.851-245.349-245.37s109.831-245.37 245.349-245.37c135.518 0 245.37 109.851 245.37 245.37s-109.851 245.37-245.37 245.37zM144.518 345.925h139.223c52.162-17.057 85.613-45.539 106.125-89.194v-156.156h-245.349v245.349zM343.729 315.911l-5.692 4.41c-4.967 3.333-45.021 26.909-57.233 25.605l-90.851-90.869-9.108-109.043 99.709 0.041 109.065 109.065c3.767 2.028-26.577 44.236-39.205 55.722l-6.686 5.071zM337.063 319.865l10.019-6.416c13.433-9.295 33.678-39.308 33.18-39.143l-105.691-105.856-68.162-0.724 6.749 79.693 90.332 92.049c9.397-3.706 31.503-16.248 33.574-19.602zM339.733 380.43c46.697-11.344 68.805-29.725 87.869-69.281l-28.028-26.411c-22.459 34.65-41.689 56.634-85.862 69.259l30.159 28.503-4.14-2.069z" horiz-adv-x="506" />
<glyph unicode="&#xe609;" d="M247.322 459.692c-135.68 0-245.7-110.018-245.7-245.721 0-135.68 110.019-245.659 245.7-245.659s245.7 109.977 245.7 245.659c0 135.701-110.019 245.721-245.7 245.721zM141.341 350.249l105.98-105.98 105.98 105.98 30.277-30.277-105.98-105.98 105.98-105.98-30.277-30.277-105.98 105.98-105.98-105.98-30.278 30.277 105.98 105.98-105.98 105.98 30.277 30.277z" horiz-adv-x="498" />
<glyph unicode="&#xe60a;" d="M13.258 430.007h247.315l52.881-51.244 58.564-49.041v-38.823l-51.262 36.622-32.802 0.244-0.132-88.11h-106.177v-164.739l109.827 3.651-1.844-73.224h31.127l51.262 21.962v-58.564h-358.76zM227.735 105.703l99.231-3.538-2.296-68.895 131.787 123.865-131.787 125.089 1.844-73.506-98.78-1.995z" horiz-adv-x="466" />
<glyph unicode="&#xe60b;" d="M185.571 458.339c-99.808 0-180.715-80.909-180.715-180.716s130.496-267.082 186.537-315.603c65.746 64.047 174.893 215.794 174.893 315.603s-80.909 180.716-180.715 180.716zM185.571 412.851c74.698 0 135.228-60.554 135.228-135.228 0-74.698-60.531-135.251-135.228-135.251s-135.228 60.555-135.228 135.251c0 74.672 60.531 135.228 135.228 135.228zM159.321 307.439l-31.344 5.556c3.542 12.81 9.655 22.296 18.291 28.433 8.612 6.138 21.47 9.218 38.478 9.218 15.453 0 27.001-1.796 34.571-5.458 7.546-3.663 12.883-8.296 15.964-13.95s4.635-15.964 4.635-31.029l-0.509-40.443c0-11.5 0.559-19.991 1.649-25.473s3.153-11.33 6.188-17.565h-34.353c-0.898 2.281-2.038 5.652-3.323 10.115-0.559 2.063-0.971 3.397-1.238 4.026-5.895-5.798-12.203-10.141-18.947-13.052s-13.902-4.367-21.518-4.367c-13.441 0-24.042 3.663-31.806 10.99-7.738 7.28-11.621 16.544-11.621 27.754 0 7.351 1.772 13.974 5.315 19.797 3.542 5.749 8.466 10.212 14.87 13.295 6.356 3.082 15.526 5.775 27.535 8.079 16.18 3.033 27.415 5.896 33.648 8.516v3.492c0 6.745-1.649 11.548-4.924 14.459-3.323 2.862-9.558 4.294-18.706 4.294-6.188 0-10.99-1.238-14.434-3.713-3.493-2.451-6.284-6.793-8.417-12.981zM205.804 279.395c-4.416-1.479-11.452-3.251-21.105-5.315-9.582-2.063-15.915-4.076-18.851-6.017-4.512-3.251-6.792-7.28-6.792-12.204 0-4.899 1.82-9.049 5.435-12.59s8.224-5.315 13.827-5.315c6.211 0 12.203 2.063 17.88 6.138 4.174 3.178 6.963 6.963 8.273 11.5 0.874 2.959 1.334 8.589 1.334 16.884v6.915z" horiz-adv-x="370" />
<glyph unicode="&#xe60c;" d="M185.571 458.339c-99.808 0-180.715-80.909-180.715-180.716s130.496-267.082 186.537-315.603c65.746 64.047 174.893 215.794 174.893 315.603s-80.909 180.716-180.715 180.716zM185.571 412.851c74.698 0 135.228-60.554 135.228-135.228 0-74.698-60.531-135.251-135.228-135.251s-135.228 60.555-135.228 135.251c0 74.672 60.531 135.228 135.228 135.228zM131.665 192.711v180.934h34.619v-65.285c10.701 12.178 23.314 18.269 37.967 18.269 15.964 0 29.161-5.749 39.593-17.346 10.457-11.573 15.673-28.215 15.673-49.904 0-22.393-5.315-39.667-15.964-51.797-10.65-12.082-23.63-18.147-38.817-18.147-7.495 0-14.87 1.94-22.175 5.775-7.28 3.858-13.537 9.412-18.802 16.764v-19.263h-32.097zM165.773 260.811c0-13.609 2.133-23.701 6.43-30.178 6.042-9.268 13.999-13.902 23.967-13.902 7.667 0 14.192 3.274 19.626 9.85 5.386 6.576 8.079 16.932 8.079 31.030 0 15.041-2.718 25.862-8.151 32.51-5.435 6.671-12.396 9.995-20.888 9.995-8.345 0-15.26-3.251-20.766-9.73-5.533-6.501-8.297-16.351-8.297-29.573z" horiz-adv-x="370" />
<glyph unicode="&#xe60d;" d="M421.754 204.399l-136.644 19.856-61.111 123.821-61.109-123.821-136.645-19.856 98.877-96.381-23.341-136.091 122.218 64.254 122.218-64.254-23.342 136.091 98.877 96.381z" horiz-adv-x="448" />
<glyph unicode="&#xe60e;" d="M256.384 322.56v-97.997l-179.635 0.026v-142.131h179.635v-97.817l194.125 168.986z" />
<glyph unicode="&#xe60f;" d="M497.179 391.41h-26.947v-404.211h26.947c29.642 0 53.894 24.252 53.894 53.894v296.421c0 29.642-24.253 53.894-53.894 53.894zM12.127 337.516v-296.421c0-29.642 24.253-53.894 53.895-53.894h26.948v404.211h-26.948c-29.642 0-53.895-24.252-53.895-53.894zM373.221 447.812c-18.351 8.542-47.643 24.441-91.621 24.441s-73.27-15.899-91.621-24.441v-56.401h-59.284v-404.211h301.81v404.211h-59.284v56.401zM340.884 391.41h-118.569v35.975c14.363 6.198 34.978 12.531 59.284 12.531s44.894-6.306 59.284-12.504v-36.002z" horiz-adv-x="563" />
<glyph unicode="&#xe610;" d="M6.644 315.563v-339.644h447.611v339.645h-447.611zM35.339 291.412h77.197v-79.403h-77.197v79.403zM351.803 79.694h77.197v-79.403h-77.197v79.403zM243.749 79.694h77.175v-79.403h-77.175v79.403zM140.083 79.694h77.197v-79.403h-77.197v79.403zM36.441 79.694h77.197v-79.403h-77.197v79.403zM36.441 185.542h77.197v-79.38h-77.197v79.38zM140.083 185.542h77.197v-79.38h-77.197v79.38zM243.749 185.542h77.175v-79.38h-77.175v79.38zM351.803 185.542h77.197v-79.38h-77.197v79.38zM351.803 291.412h77.197v-79.403h-77.197v79.403zM245.953 291.412h77.175v-79.403h-77.175v79.403zM140.083 291.412h77.197v-79.403h-77.197v79.403zM6.665 397.261h94.841v59.553h50.618v-59.553h157.834v58.449h50.618v-58.449h93.783v-55.141h-447.699z" horiz-adv-x="466" />
<glyph unicode="&#xe611;" d="M255.063 454.505c-132.326 0-239.586-107.261-239.586-239.586s107.26-239.606 239.586-239.606c132.326 0 239.606 107.281 239.606 239.606s-107.281 239.586-239.606 239.586zM254.482 393.424c98.258 0 177.925-79.668 177.925-177.925 0-98.277-79.668-177.925-177.925-177.925s-177.925 79.648-177.925 177.925c0 98.258 79.668 177.925 177.925 177.925zM234.028 348.366h39.584l-0.161-110.869 116.064-0.161v-39.564l-122.081 0.161v-0.522h-33.567z" horiz-adv-x="514" />
<glyph unicode="&#xe612;" d="M285.497 170.254l-82.561 82.423 244.726 166.013-162.167-248.437zM203.694 251.513l10.316-10.316-124.305-190.451 187.614 127.278 8.937-8.937-99.966-67.796 121.217 0.175-62.065-127.22-61.444 125.472-142.468-96.644 162.167 248.437zM307.506 329.701l-124.287 0.194 62.221 127.025 62.065-127.22zM307.933 100.457l53.188 48.176 4.856-59.21-58.044 11.034zM181.938 329.391l-49.225-52.235-9.519 58.646 58.745-6.41zM132.226 276.359l-0.446-124.287-126.909 62.493 127.355 61.793zM360.423 274.396l0.447-124.287 126.889 62.493-127.336 61.793z" horiz-adv-x="490" />
<glyph unicode="&#xe613;" d="M552.966 439.992l-0.219-0.044-80.477-17.517-9.635-132.343v-20.408h-1.474l-11.707-160.94c0-5.109-2.438-7.839-5.080-9.328-0.978-0.627-2.146-1.080-3.518-1.343-1.752-0.409-3.065-0.409-3.065-0.409h-386.11c0 0-11.663-0.102-11.663 11.065 0 11.342 11.663 11.985 11.663 11.985h375.438l2.964 40.932h-383.497l-39.837 224.82 443.99 59.398 0.481 6.627 0.029 0.19c0 0 1.416 11.532 12.817 10.759 11.167-0.745 10.277-12.335 10.277-12.335v-0.204l-0.336-4.496 74.011 16.116c0 0 11.532 1.854 13.97-9.226 2.394-10.904-9.021-13.298-9.021-13.298zM373.692 184.722v0l58.070-0.014 6.175 84.974h-66.565l2.321-84.959zM93.021 374.711v0l-59.34-7.941 13.197-74.040h52.698l-6.555 81.981zM101.415 269.681v0h-50.435l15.094-84.784 42.129-0.014-6.788 84.798zM202.446 389.367v0l-86.433-11.576 6.802-85.061h85.791l-6.16 96.637zM210.065 269.681v0h-85.411l6.788-84.813 84.039-0.044-5.416 84.857zM344.394 408.374v0l-118.942-15.926 6.35-99.717h115.76l-3.168 115.643zM348.189 269.681v0h-114.913l5.416-84.871 111.833-0.073-2.336 84.944zM367.488 411.468v0l3.24-118.738h68.887l9.416 129.642-81.543-10.904zM124.334 64.539v0c23.342-0.087 42.217-18.948 42.202-42.173-0.073-23.24-19.006-42.056-42.362-42.012-23.341 0.044-42.231 18.918-42.173 42.144 0.044 23.225 18.962 42.041 42.334 42.041zM406.244 89.618v0c30.32 0 54.887-24.451 54.887-54.61s-24.568-54.654-54.887-54.654c-30.334 0-54.902 24.495-54.902 54.654s24.568 54.61 54.902 54.61z" horiz-adv-x="578" />
<glyph unicode="&#xe614;" d="M110.678 237.463c0-34.626 0-192.413 0-215.506s80.974-44.070 182.179-50.8c64.814-4.306 66.653 20.787 84.433 53.106 17.765 32.334 23.356 45.457 43.691 111.614 4.073 6.934 37.034 19.444 37.034 65.427 0 55.69-65.471 68.712-108.87 79.266 58.99 79.805 38.873 169.333-7.416 171.64-71.368 3.562-47.019-62.070-75.529-87.747-79.572-85.936-155.524-99.293-155.524-127zM148.997 222.866c-5.488 15.474 74.828 37.487 136.663 104.257 21.838 19.663 5.518 72.886 57.34 81.791 35.443-1.767-6.949-100.593-57.369-159.086 33.254-8.101 129.978-13.999 129.978-56.669 0-35.224-29.079-47.37-32.217-52.683-15.561-50.683-19.853-64.565-33.458-89.338-13.62-24.757-15.036-43.983-64.683-40.684-77.529 5.153-139.554 21.225-139.554 38.918s3.299 146.97 3.299 173.494zM37.981 265.141c-12.262 0-22.218-10.35-22.218-23.094v-225.52c0-12.759 9.956-23.079 22.218-23.079h20.743c12.276 0 22.218 10.32 22.218 23.079v225.52c0 12.744-9.941 23.094-22.218 23.094h-20.743zM45.543 223.201h4.642c2.745 0 4.978-7.226 4.978-16.13v-157.494c0-8.904-2.233-16.116-4.978-16.116h-4.642c-2.745 0-4.978 7.212-4.978 16.116v157.495c0 8.905 2.233 16.131 4.978 16.131z" horiz-adv-x="466" />
<glyph unicode="&#xe615;" d="M110.678 237.463c0 27.707 75.952 41.064 155.524 127 28.51 25.677 4.161 91.308 75.529 87.747 46.289-2.306 66.405-91.834 7.416-171.64 43.399-10.554 108.87-23.575 108.87-79.266 0-45.983-32.962-58.493-37.034-65.427-20.334-66.157-25.925-79.28-43.691-111.614-17.78-32.32-19.62-57.413-84.433-53.106-101.206 6.729-182.179 27.707-182.179 50.8s0 180.88 0 215.506zM29.223 266.717h20.728c12.276 0 22.218-10.335 22.218-23.094v-225.506c0-12.759-9.941-23.094-22.218-23.094h-20.729c-12.277 0-22.218 10.335-22.218 23.094v225.506c0 12.759 9.941 23.094 22.218 23.094z" horiz-adv-x="466" />
<glyph unicode="&#xe616;" d="M424.96 230.016l-97.997 0.026 0.026 179.609h-142.131v-179.635l-97.817 0.026 168.96-194.151z" />
<glyph unicode="&#xe617;" d="M424.96 230.784l-97.997-0.025 0.026-179.609h-142.131v179.635l-97.817-0.025 168.985 194.15z" />
<glyph unicode="&#xe618;" d="M272.661 171.031c23.825-7.453 46.224-16.971 66.54-28.057-11.355 59.726 1.776 126.431 59.5 179.055 125.75 114.622 230.937 157.027 281.353 123.045-43.995-106.137-146.994-340.873-231.494-449.527h-0.021c-0.495-7.123-1.817-14.224-4.026-21.306-164.5-1.177-235.314-0.495-388.522-0.269-33.053 38.462-47.319 80.867-34.581 121.62 24.217 77.461 136.691 111.236 251.251 75.438zM503.68 424.265c-57.104-30.534-160-95.897-175.67-179.633-38.235 27.561-33.507 113.053 24.072 162.333s123.52 47.174 151.597 17.3z" horiz-adv-x="692" />
<glyph unicode="&#xe619;" d="M10.921 456.926h440.547l101.368-102.772-101.368-98.787h-188.614v-242.354h-1.26c58.426-4.274 94.121-17.156 117.636-47.711h-272.516c30.266 29.584 62.617 43.313 120.258 47.711h-1.796v242.354h-214.256v201.559z" horiz-adv-x="564" />
<glyph unicode="&#xe61a;" d="M276.18 236.466c93.998 0 181.347-118.937 181.347-205.42 0-23.825 2.395-45.873-6.793-54.462-76.449-26.529-65.589 28.387-160.784 34.849-91.851-5.161-112.041-58.075-179.633-34.849-8.857 8.96-6.854 26.694-6.854 47.67 0 86.503 78.699 212.212 172.718 212.212zM548.057 286.015c27.582-18.106 28.676-65.136 2.477-105.022-26.22-39.866-69.822-57.476-97.424-39.329-27.562 18.106-28.676 65.156-2.478 105.022 26.24 39.866 69.843 57.476 97.425 39.329zM423.876 457.741c33.115-12.841 44.882-62.038 26.302-109.915-18.581-47.835-60.49-76.202-93.584-63.339-33.094 12.841-44.862 62.060-26.281 109.915 18.581 47.835 60.49 76.201 93.564 63.339zM190.421 466.185c34.416 8.753 72.567-24.485 85.202-74.24 12.656-49.734-4.996-97.156-39.411-105.93-34.416-8.733-72.567 24.526-85.202 74.26-12.655 49.734 4.996 97.156 39.411 105.909zM44.687 340.208c31.835 15.711 76.057-8.918 98.725-54.958 22.709-46.018 15.278-96.083-16.599-111.793-31.856-15.69-76.057 8.918-98.725 54.978-22.689 46.018-15.277 96.082 16.599 111.773v0z" horiz-adv-x="588" />
</font>
</defs>
</svg>
